<?xml version="1.0" encoding="utf-8"?>
<!-- Generator: Adobe Illustrator 19.2.1, SVG Export Plug-In . SVG Version: 6.00 Build 0)  -->
<svg version="1.1" id="レイヤー_1" xmlns="http://www.w3.org/2000/svg" xmlns:xlink="http://www.w3.org/1999/xlink" x="0px"
	 y="0px" viewBox="0 0 205.6 53.3" style="enable-background:new 0 0 205.6 53.3;" xml:space="preserve">
<style type="text/css">
	.st0{fill:#3366FF;}
	.st1{fill:#000099;}
</style>
<title>IS_LOGO</title>
<g>
	<g>
		<path class="st0" d="M35.9,9.5h-22c5.3,5,10.6,12.5,32.3,17.7L35.9,9.5z"/>
		<path class="st0" d="M12.9,50.9h23l11.2-19.3C37.7,33.4,24.2,38.2,12.9,50.9z"/>
		<path class="st0" d="M21.2,35.5c-2.3-1-3.9-2.9-3.9-5.2c0-2.7,2.2-4.9,5.2-5.6c-3.7-3.1-7.4-7.8-10.9-14.7L0.1,30.2L11,49.1
			C13.7,44.4,17.1,39.4,21.2,35.5z"/>
		<path class="st0" d="M9.6,0.3C9.2,0.5,9.3,1.2,9.5,1.6C12.7,9.1,23.9,26,44.3,34.4c21.8,9,39,9.1,43.4,4c0.6-0.6,1-1.5,0.3-2.6
			c-0.5-0.9-1.7-1.3-3.6-0.8c-6.1,1.7-16.1,4.3-38.8-3.9c-22-8-30.5-22.4-34.6-30C10.8,0.5,10.5-0.4,9.6,0.3z"/>
	</g>
	<g>
		<path class="st1" d="M53.4,10.8h5.4l-4.4,16.6h-5.4L53.4,10.8z"/>
		<path class="st1" d="M61.9,27.4h-2.7l3.7-13.9c0.1-0.4,0.2-0.8,0.4-1.1c0.2-0.4,0.4-0.7,0.7-1c0.3-0.3,0.6-0.5,1-0.7
			c0.4-0.2,0.8-0.3,1.3-0.3c0.5,0,0.9,0.1,1.2,0.2c0.4,0.1,0.6,0.3,0.9,0.6c0.2,0.3,0.4,0.6,0.6,0.9c0.2,0.3,0.4,0.7,0.5,1.1l2.1,6
			l2.3-8.3h2.6l-3.9,14.4c0,0,0,0.1-0.1,0.1c0,0,0,0.1,0,0.1c0,0,0,0.1,0,0.1c0,0,0,0.1,0,0.1c-0.1,0.3-0.2,0.6-0.4,0.9
			c-0.1,0.3-0.3,0.5-0.5,0.8c-0.2,0.2-0.4,0.4-0.7,0.5c-0.3,0.1-0.6,0.2-1,0.2c-0.3,0-0.6,0-0.8-0.1c-0.2-0.1-0.4-0.2-0.5-0.4
			c-0.2-0.2-0.3-0.4-0.4-0.6c-0.1-0.2-0.2-0.4-0.3-0.6c0-0.1,0-0.1-0.1-0.1c0,0,0-0.1,0-0.1c0,0,0,0-0.1-0.1c0,0,0-0.1,0-0.1
			c0-0.1,0-0.1,0-0.1l-3.1-9L61.9,27.4z"/>
		<path class="st1" d="M82,13.7h-4.4l0.8-2.8h14.3l-0.8,2.8h-4.4l-3.7,13.7h-5.4L82,13.7z"/>
		<path class="st1" d="M93,27.2c-0.4-0.2-0.7-0.4-0.9-0.7c-0.2-0.3-0.3-0.7-0.3-1.2c0-0.5,0.1-1,0.3-1.7l2.4-9
			c0.2-0.6,0.4-1.2,0.6-1.6c0.2-0.5,0.5-0.9,0.9-1.2c0.3-0.3,0.7-0.5,1.2-0.7c0.5-0.2,1.1-0.2,1.7-0.2l7.7,0l-0.7,2.5H102
			c-0.2,0-0.4,0.1-0.6,0.1c-0.2,0-0.4,0.1-0.6,0.2c-0.2,0.1-0.3,0.2-0.5,0.3c-0.1,0.1-0.2,0.3-0.3,0.6c0,0,0,0.1,0,0.1
			c0,0,0,0.1,0,0.1c0,0.1-0.1,0.1-0.1,0.2c0,0.1-0.1,0.1-0.1,0.2c0,0.1-0.1,0.2-0.1,0.3c0,0.1-0.1,0.2-0.1,0.3
			c-0.1,0.1-0.1,0.3-0.1,0.4c0,0.1-0.1,0.3-0.1,0.4c0,0.1-0.1,0.2-0.1,0.3c0,0.1-0.1,0.2-0.1,0.4c0,0.1,0,0.2-0.1,0.2
			c0,0.1,0,0.2-0.1,0.2c0,0.1,0,0.1-0.1,0.2c0,0.1,0,0.1-0.1,0.2l5.2,0l-0.7,2.5h-5.2c0,0,0,0.1,0,0.1c0,0.1,0,0.1-0.1,0.1
			c0,0.1,0,0.1-0.1,0.1c0,0,0,0.1,0,0.1c0,0,0,0.1,0,0.1c0,0,0,0.1-0.1,0.1c0,0,0,0.1-0.1,0.1c0,0,0,0.1,0,0.1c0,0,0,0.1,0,0.1
			c0,0.1,0,0.1,0,0.1c0,0.1,0,0.1-0.1,0.1c0,0,0,0.1,0,0.1c0,0,0,0.1,0,0.1c0,0.1,0,0.1-0.1,0.1c0,0.1,0,0.1-0.1,0.1
			c0,0,0,0.1,0,0.1c-0.1,0.2-0.1,0.4-0.1,0.5c0,0.2-0.1,0.4-0.1,0.5c-0.1,0.2-0.1,0.3-0.1,0.5c0,0.2,0,0.3,0,0.4
			c0,0.1,0.1,0.2,0.1,0.3c0,0.1,0.1,0.1,0.2,0.2c0.1,0,0.2,0.1,0.3,0.1c0.1,0,0.2,0.1,0.3,0.1c0,0,0.1,0,0.1,0c0,0,0.1,0,0.1,0
			c0.1,0,0.1,0,0.1,0c0,0,0.1,0,0.1,0c0,0,0.1,0,0.1,0c0.1,0,0.1,0,0.1,0l4.4,0l-0.7,2.5h-8C94,27.4,93.4,27.3,93,27.2z"/>
		<path class="st1" d="M111.3,10.8h7.2c0,0,0.1,0,0.1,0c0,0,0.1,0,0.1,0c0.1,0,0.1,0,0.1,0c0,0,0.1,0,0.1,0c0.8,0,1.6,0.1,2.2,0.3
			c0.7,0.2,1.3,0.4,1.9,0.8c0.6,0.3,1,0.8,1.1,1.5c0.2,0.7,0.1,1.4-0.2,2.4c-0.1,0.6-0.3,1.1-0.6,1.5c-0.3,0.4-0.6,0.8-0.9,1.2
			c-0.4,0.3-0.8,0.6-1.2,0.9c-0.4,0.2-0.9,0.4-1.5,0.6l2.9,7.4h-6.3l-1.7-7.8l0.1-0.3c0.6-0.1,1.1-0.2,1.5-0.4
			c0.4-0.2,0.8-0.5,1.2-0.8c0.4-0.3,0.6-0.7,0.8-1.2c0.2-0.5,0.3-1,0.3-1.6c0-0.5,0-0.8-0.2-1.1c-0.1-0.3-0.4-0.5-0.7-0.6
			c-0.3-0.1-0.7-0.2-1-0.3c-0.3-0.1-0.7-0.1-1.1,0l-3.8,14.2h-5.1L111.3,10.8z"/>
		<path class="st1" d="M125.3,24.9h4.4c0.1,0,0.1,0,0.1,0c0,0,0.1,0,0.1,0c0.1,0,0.1,0,0.2,0c0.1,0,0.1,0,0.2,0c0.1,0,0.3,0,0.4,0
			c0.1,0,0.3-0.1,0.4-0.1c0.1,0,0.3-0.1,0.4-0.1c0.1-0.1,0.3-0.1,0.4-0.2c0.3-0.1,0.5-0.3,0.6-0.5c0.2-0.2,0.3-0.5,0.5-0.9
			c0.1-0.2,0.1-0.3,0.1-0.5c0-0.2,0-0.3-0.1-0.4c0-0.1-0.1-0.2-0.2-0.3c-0.1-0.1-0.2-0.2-0.4-0.2c-0.2-0.1-0.3-0.1-0.5-0.2
			c-0.2-0.1-0.3-0.1-0.5-0.2c-0.2,0-0.4-0.1-0.5-0.2c-0.2-0.1-0.3-0.1-0.5-0.2c0,0,0,0,0,0h0h0c-0.2-0.1-0.3-0.1-0.5-0.2
			c-0.2-0.1-0.3-0.1-0.5-0.2c-0.2-0.1-0.3-0.1-0.5-0.2c-0.2-0.1-0.3-0.1-0.4-0.2c-0.5-0.2-0.8-0.5-1.1-0.8c-0.3-0.3-0.5-0.7-0.6-1.2
			c-0.1-0.5-0.1-0.9,0-1.4c0.1-0.5,0.2-1,0.4-1.5c0,0,0-0.1,0.1-0.2c0-0.1,0.1-0.1,0.1-0.2c0,0,0-0.1,0.1-0.2c0-0.1,0.1-0.1,0.1-0.2
			c0.4-0.7,0.8-1.2,1.3-1.7c0.5-0.5,1-0.9,1.7-1.1c0.6-0.3,1.2-0.5,1.8-0.6c0.6-0.2,1.3-0.2,1.9-0.3c0,0,0,0,0.1,0c0,0,0.1,0,0.1,0
			c0,0,0.1,0,0.1,0c0,0,0.1,0,0.1,0c0.1,0,0.1,0,0.1,0c0,0,0.1,0,0.1,0c0,0,0.1,0,0.1,0c0,0,0.1,0,0.1,0l4.4,0l-0.7,2.5
			c-0.1,0-0.2,0-0.2,0c-0.1,0-0.2,0-0.2,0c-0.1,0-0.1,0-0.2,0c-0.1,0-0.1,0-0.2,0c-0.1,0-0.1,0-0.2,0c-0.1,0-0.1,0-0.2,0
			c-0.1,0-0.1,0-0.2,0c-0.1,0-0.1,0-0.2,0c-0.1,0-0.1,0-0.2,0c-0.1,0-0.1,0-0.2,0c-0.1,0-0.1,0-0.2,0c-0.1,0-0.1,0-0.2,0
			c-0.1,0-0.1,0-0.2,0c-0.1,0-0.1,0-0.2,0c-0.4,0-0.7,0-1.1,0.1c-0.3,0.1-0.7,0.1-1,0.2c-0.3,0.1-0.6,0.2-0.8,0.4
			c-0.2,0.2-0.4,0.4-0.5,0.7c-0.1,0.2-0.1,0.4,0,0.6c0.1,0.2,0.2,0.4,0.4,0.5c0.2,0.2,0.4,0.3,0.7,0.4c0.3,0.1,0.5,0.2,0.8,0.3
			c0.1,0,0.1,0.1,0.2,0.1c0.1,0,0.1,0.1,0.2,0.1c0.1,0,0.2,0.1,0.3,0.1c0.1,0,0.2,0.1,0.4,0.1c0.2,0.1,0.3,0.1,0.5,0.1
			c0.1,0,0.3,0.1,0.4,0.1c0.5,0.2,0.8,0.5,1.1,0.8c0.3,0.3,0.5,0.7,0.7,1.2c0.1,0.5,0.2,1,0.2,1.5c0,0.5-0.1,1-0.3,1.5
			c-0.2,0.7-0.6,1.3-1,1.9c-0.4,0.6-1,1.2-1.7,1.8c-0.7,0.6-1.5,1-2.3,1.2c-0.9,0.3-1.8,0.4-2.8,0.4h-5.5L125.3,24.9z"/>
		<path class="st1" d="M137,34.4l6.3-23.5h6.2c1.6,0,2.9,0.2,4.1,0.6c1.2,0.4,2.1,1,2.8,1.7c0.7,0.8,1.2,1.8,1.3,3
			c0.1,1.2-0.1,2.7-0.7,4.3c-0.2,0.7-0.5,1.4-0.9,2c-0.4,0.6-0.8,1.2-1.4,1.8c-0.5,0.6-1.1,1.1-1.8,1.5c-0.7,0.4-1.3,0.7-2.1,1
			c-0.2,0.1-0.4,0.1-0.5,0.2c-0.2,0.1-0.4,0.1-0.5,0.1c-0.2,0.1-0.4,0.1-0.5,0.1c-0.2,0-0.4,0.1-0.5,0.1c-0.2,0-0.4,0-0.5,0.1
			c-0.2,0-0.3,0-0.5,0c-0.2,0-0.4,0-0.5,0c-0.2,0-0.4,0-0.5,0c-0.1,0-0.3,0-0.4,0c-0.1,0-0.3,0-0.4,0c-0.1,0-0.3,0-0.4,0
			s-0.3,0-0.4,0c-0.1,0-0.1,0-0.2,0c-0.1,0-0.1,0-0.2,0c-0.1,0-0.1,0-0.2,0c-0.1,0-0.1,0-0.2,0l-1.9,7H137z M144.9,25.1
			c1-0.1,1.9-0.2,2.6-0.5c0.8-0.3,1.4-0.6,1.9-1.1c0.5-0.5,0.9-1.1,1.3-1.8c0.4-0.7,0.7-1.6,1-2.5c0.3-1,0.4-1.8,0.4-2.6
			c0-0.7-0.1-1.4-0.3-1.8c-0.2-0.5-0.6-0.9-1.2-1.1c-0.6-0.3-1.4-0.4-2.4-0.5v0L144.9,25.1z"/>
		<path class="st1" d="M163.6,14c0.3-0.4,0.5-0.9,0.8-1.3c0.3-0.4,0.6-0.8,1-1.1c0.4-0.4,0.8-0.6,1.2-0.8c0.4-0.2,0.9-0.3,1.5-0.3
			c0.5,0,0.9,0.1,1.3,0.2c0.3,0.2,0.6,0.4,0.7,0.8c0.2,0.3,0.3,0.7,0.4,1.1c0.1,0.4,0.1,0.8,0.2,1.2l0.8,13.7h-5.7l-0.1-3h-5.5
			l-1.7,3h-2.8L163.6,14z M165.6,22.1l-0.1-7.2l-4.1,7.2H165.6z"/>
		<path class="st1" d="M186.3,25.5c-0.7,0.6-1.4,1.1-2.1,1.5c-0.7,0.3-1.4,0.6-2.1,0.8c-0.7,0.2-1.4,0.3-2.1,0.3c-1,0-2-0.2-2.8-0.5
			c-0.9-0.4-1.6-0.9-2.2-1.7c-0.6-0.8-1-1.7-1.2-2.8c-0.1-1.1,0-2.3,0.4-3.7c0.4-1.4,0.9-2.6,1.6-3.7c0.7-1.1,1.6-2,2.6-2.8
			c0.3-0.3,0.7-0.5,1-0.7c0.3-0.2,0.7-0.4,1-0.6c0.7-0.4,1.3-0.6,2-0.8c0.7-0.2,1.3-0.3,2-0.4c0.8-0.1,1.5,0,2.2,0.2
			c0.7,0.2,1.3,0.4,1.9,0.8c0.6,0.3,1,0.8,1.4,1.4c0.3,0.6,0.5,1.2,0.6,2l-2.7,1.3c0-0.4,0-0.8-0.1-1.1c-0.1-0.4-0.2-0.7-0.4-1
			c-0.2-0.3-0.4-0.5-0.7-0.7c-0.3-0.2-0.7-0.2-1.1-0.2c-0.6,0-1.1,0.1-1.5,0.4c-0.5,0.2-0.9,0.5-1.2,1c-0.4,0.4-0.7,0.8-1,1.3
			c-0.3,0.4-0.5,0.9-0.7,1.4c-0.1,0.2-0.2,0.4-0.3,0.6c-0.1,0.2-0.1,0.4-0.2,0.6c-0.1,0.1-0.1,0.3-0.1,0.4c0,0.1-0.1,0.3-0.1,0.4
			c0,0.1,0,0.1-0.1,0.2c0,0.1,0,0.1-0.1,0.2c-0.3,1.2-0.5,2.2-0.6,3.1c0,0.8,0.1,1.5,0.3,1.9c0.3,0.5,0.6,0.8,1,1
			c0.4,0.2,0.8,0.2,1.3,0.2c0.4-0.1,0.7-0.2,1.1-0.3c0.4-0.2,0.8-0.4,1.2-0.7c0.4-0.3,0.8-0.6,1.1-1c0.3-0.4,0.7-0.8,0.9-1.3
			l1.8,1.2C187.6,24.1,187,24.9,186.3,25.5z"/>
		<path class="st1" d="M191.1,27.2c-0.4-0.2-0.7-0.4-0.9-0.7c-0.2-0.3-0.3-0.7-0.3-1.2c0-0.5,0.1-1,0.3-1.7l2.4-9
			c0.2-0.6,0.4-1.2,0.6-1.6c0.2-0.5,0.5-0.9,0.9-1.2c0.3-0.3,0.7-0.5,1.2-0.7c0.5-0.2,1.1-0.2,1.7-0.2l7.7,0l-0.7,2.5H200
			c-0.2,0-0.4,0.1-0.6,0.1c-0.2,0-0.4,0.1-0.6,0.2c-0.2,0.1-0.3,0.2-0.5,0.3c-0.1,0.1-0.2,0.3-0.3,0.6c0,0,0,0.1,0,0.1
			c0,0,0,0.1,0,0.1c0,0.1-0.1,0.1-0.1,0.2c0,0.1-0.1,0.1-0.1,0.2c0,0.1-0.1,0.2-0.1,0.3c0,0.1-0.1,0.2-0.1,0.3
			c-0.1,0.1-0.1,0.3-0.1,0.4c0,0.1-0.1,0.3-0.1,0.4c0,0.1-0.1,0.2-0.1,0.3c0,0.1,0,0.2-0.1,0.4c0,0.1,0,0.2-0.1,0.2
			c0,0.1,0,0.2-0.1,0.2c0,0.1,0,0.1-0.1,0.2c0,0.1,0,0.1-0.1,0.2l5.2,0l-0.7,2.5h-5.2c0,0,0,0.1,0,0.1c0,0.1,0,0.1-0.1,0.1
			c0,0.1,0,0.1-0.1,0.1c0,0,0,0.1,0,0.1c0,0,0,0.1,0,0.1c0,0,0,0.1-0.1,0.1c0,0,0,0.1-0.1,0.1c0,0,0,0.1,0,0.1c0,0,0,0.1,0,0.1
			c0,0.1,0,0.1,0,0.1c0,0.1,0,0.1-0.1,0.1c0,0,0,0.1,0,0.1c0,0,0,0.1,0,0.1c0,0.1,0,0.1-0.1,0.1c0,0.1,0,0.1-0.1,0.1
			c0,0,0,0.1,0,0.1c-0.1,0.2-0.1,0.4-0.1,0.5c0,0.2-0.1,0.4-0.1,0.5c-0.1,0.2-0.1,0.3-0.1,0.5c0,0.2,0,0.3,0,0.4
			c0,0.1,0.1,0.2,0.1,0.3c0,0.1,0.1,0.1,0.2,0.2c0.1,0,0.2,0.1,0.3,0.1c0.1,0,0.2,0.1,0.3,0.1c0,0,0,0,0.1,0c0,0,0.1,0,0.1,0
			c0.1,0,0.1,0,0.1,0s0.1,0,0.1,0c0,0,0.1,0,0.1,0c0.1,0,0.1,0,0.1,0l4.4,0l-0.7,2.5h-8C192,27.4,191.5,27.3,191.1,27.2z"/>
	</g>
	<g>
		<path class="st0" d="M49.1,50.9h-3.4V50h1.1v-6.9h-1.1v-0.9h3.4v0.9h-1.1V50h1.1V50.9z"/>
		<path class="st0" d="M56.3,50.9h-1.1v-3.7c0-0.3,0-0.6-0.1-0.8c0-0.3-0.1-0.5-0.2-0.6c-0.1-0.2-0.2-0.3-0.4-0.4
			c-0.2-0.1-0.4-0.1-0.7-0.1c-0.3,0-0.6,0.1-0.9,0.2c-0.3,0.1-0.6,0.3-0.9,0.6v4.9h-1.1v-6.5H52v0.7c0.3-0.3,0.7-0.5,1.1-0.7
			c0.4-0.2,0.7-0.2,1.1-0.2c0.7,0,1.2,0.2,1.6,0.6c0.4,0.4,0.6,1,0.6,1.8V50.9z"/>
		<path class="st0" d="M61.8,50.8c-0.2,0.1-0.4,0.1-0.7,0.1c-0.2,0-0.5,0.1-0.7,0.1c-0.7,0-1.2-0.2-1.5-0.5
			c-0.3-0.4-0.5-0.9-0.5-1.7v-3.5h-0.7v-0.9h0.7v-1.9h1.1v1.9h2.3v0.9h-2.3v3c0,0.3,0,0.6,0,0.8c0,0.2,0.1,0.4,0.2,0.5
			c0.1,0.2,0.2,0.3,0.4,0.3c0.2,0.1,0.4,0.1,0.7,0.1c0.2,0,0.4,0,0.6-0.1c0.2-0.1,0.3-0.1,0.4-0.1h0.1V50.8z"/>
		<path class="st0" d="M68.5,47.7h-4.8c0,0.4,0.1,0.8,0.2,1.1c0.1,0.3,0.3,0.5,0.5,0.7c0.2,0.2,0.4,0.3,0.7,0.4
			c0.3,0.1,0.6,0.1,0.9,0.1c0.4,0,0.9-0.1,1.3-0.3c0.5-0.2,0.8-0.4,1-0.5h0.1v1.2c-0.4,0.2-0.7,0.3-1.1,0.4C66.8,51,66.4,51,66,51
			c-1.1,0-1.9-0.3-2.5-0.9c-0.6-0.6-0.9-1.4-0.9-2.5c0-1.1,0.3-1.9,0.9-2.5c0.6-0.6,1.4-0.9,2.3-0.9c0.9,0,1.6,0.3,2,0.8
			c0.5,0.5,0.7,1.2,0.7,2.2V47.7z M67.4,46.9c0-0.6-0.1-1-0.4-1.3c-0.3-0.3-0.7-0.5-1.3-0.5c-0.6,0-1.1,0.2-1.4,0.5
			c-0.3,0.3-0.5,0.8-0.6,1.3H67.4z"/>
		<path class="st0" d="M74.1,45.6L74.1,45.6c-0.2,0-0.4-0.1-0.5-0.1c-0.2,0-0.3,0-0.5,0c-0.3,0-0.7,0.1-1,0.2
			c-0.3,0.2-0.6,0.3-0.9,0.6v4.6h-1.1v-6.5h1.1v1c0.4-0.4,0.8-0.6,1.2-0.7c0.3-0.1,0.7-0.2,1-0.2c0.2,0,0.3,0,0.4,0
			c0.1,0,0.2,0,0.4,0.1V45.6z"/>
		<path class="st0" d="M79.8,49c0,0.6-0.2,1.1-0.7,1.5c-0.5,0.4-1.2,0.6-2,0.6c-0.5,0-0.9-0.1-1.3-0.2c-0.4-0.1-0.7-0.2-1-0.4v-1.2
			h0.1c0.3,0.3,0.7,0.5,1.2,0.6c0.4,0.2,0.8,0.2,1.2,0.2c0.5,0,0.9-0.1,1.1-0.2c0.3-0.2,0.4-0.4,0.4-0.7c0-0.3-0.1-0.5-0.2-0.6
			c-0.1-0.1-0.4-0.2-0.9-0.3c-0.2,0-0.4-0.1-0.6-0.1c-0.3,0-0.5-0.1-0.7-0.2c-0.6-0.2-1-0.4-1.2-0.7c-0.2-0.3-0.4-0.7-0.4-1.1
			c0-0.3,0.1-0.5,0.2-0.8c0.1-0.2,0.3-0.5,0.5-0.6c0.2-0.2,0.5-0.3,0.8-0.4c0.3-0.1,0.7-0.2,1.1-0.2c0.4,0,0.8,0,1.2,0.1
			c0.4,0.1,0.7,0.2,1,0.3v1.2h-0.1c-0.3-0.2-0.6-0.4-1-0.5c-0.4-0.1-0.8-0.2-1.2-0.2c-0.4,0-0.7,0.1-1,0.2c-0.3,0.2-0.4,0.4-0.4,0.7
			c0,0.3,0.1,0.5,0.3,0.6c0.2,0.1,0.4,0.2,0.8,0.3c0.2,0,0.4,0.1,0.7,0.1c0.3,0,0.5,0.1,0.6,0.1c0.5,0.1,0.9,0.3,1.2,0.6
			C79.6,48.2,79.8,48.5,79.8,49z"/>
		<path class="st0" d="M87,47.5c0,0.5-0.1,1-0.2,1.5c-0.2,0.4-0.4,0.8-0.6,1.1c-0.3,0.3-0.6,0.5-0.9,0.7c-0.3,0.2-0.7,0.2-1.1,0.2
			c-0.3,0-0.6,0-0.9-0.1c-0.3-0.1-0.6-0.2-0.8-0.3v2.7h-1.1v-8.9h1.1V45c0.3-0.2,0.6-0.5,1-0.6c0.4-0.2,0.8-0.2,1.2-0.2
			c0.8,0,1.4,0.3,1.8,0.9C86.8,45.7,87,46.5,87,47.5z M85.9,47.6c0-0.8-0.1-1.4-0.4-1.8c-0.3-0.4-0.7-0.6-1.2-0.6
			c-0.3,0-0.6,0.1-1,0.2c-0.3,0.1-0.6,0.3-0.9,0.5v3.7c0.3,0.1,0.6,0.2,0.8,0.3c0.2,0.1,0.5,0.1,0.8,0.1c0.6,0,1.1-0.2,1.4-0.6
			C85.7,49,85.9,48.4,85.9,47.6z"/>
		<path class="st0" d="M93.7,50.9h-1.1v-0.7c-0.1,0.1-0.2,0.2-0.4,0.3c-0.2,0.1-0.3,0.2-0.5,0.3c-0.2,0.1-0.4,0.2-0.6,0.2
			c-0.2,0.1-0.5,0.1-0.8,0.1c-0.6,0-1.1-0.2-1.5-0.6c-0.4-0.4-0.6-0.9-0.6-1.5c0-0.5,0.1-0.9,0.3-1.2c0.2-0.3,0.5-0.5,0.9-0.7
			c0.4-0.2,0.9-0.3,1.4-0.4c0.6-0.1,1.2-0.1,1.8-0.1v-0.2c0-0.2,0-0.5-0.1-0.6c-0.1-0.2-0.2-0.3-0.4-0.4c-0.2-0.1-0.3-0.2-0.6-0.2
			c-0.2,0-0.4,0-0.7,0c-0.3,0-0.6,0-1,0.1c-0.4,0.1-0.7,0.2-1.1,0.3h-0.1v-1.1c0.2-0.1,0.5-0.1,0.9-0.2c0.4-0.1,0.8-0.1,1.2-0.1
			c0.5,0,0.9,0,1.2,0.1c0.3,0.1,0.6,0.2,0.9,0.4c0.2,0.2,0.4,0.4,0.6,0.7c0.1,0.3,0.2,0.6,0.2,1.1V50.9z M92.6,49.3v-1.8
			c-0.3,0-0.7,0-1.2,0.1c-0.5,0-0.8,0.1-1.1,0.2c-0.3,0.1-0.6,0.2-0.8,0.4c-0.2,0.2-0.3,0.4-0.3,0.8c0,0.4,0.1,0.7,0.3,0.8
			c0.2,0.2,0.6,0.3,1,0.3c0.4,0,0.7-0.1,1.1-0.2C92.1,49.7,92.4,49.5,92.6,49.3z"/>
		<path class="st0" d="M100.6,50.5c-0.4,0.2-0.7,0.3-1,0.4C99.2,51,98.9,51,98.5,51c-0.5,0-0.9-0.1-1.3-0.2c-0.4-0.1-0.7-0.3-1-0.6
			c-0.3-0.3-0.5-0.6-0.7-1.1c-0.2-0.4-0.2-0.9-0.2-1.5c0-1.1,0.3-1.9,0.9-2.5c0.6-0.6,1.4-0.9,2.3-0.9c0.4,0,0.7,0.1,1.1,0.2
			c0.4,0.1,0.7,0.2,1,0.4V46h-0.1c-0.3-0.3-0.7-0.5-1-0.6c-0.4-0.1-0.7-0.2-1-0.2c-0.6,0-1.1,0.2-1.5,0.6c-0.4,0.4-0.5,1-0.5,1.8
			c0,0.8,0.2,1.4,0.5,1.8c0.4,0.4,0.8,0.6,1.5,0.6c0.2,0,0.4,0,0.7-0.1c0.2-0.1,0.4-0.1,0.6-0.2c0.2-0.1,0.3-0.2,0.5-0.3
			c0.1-0.1,0.3-0.2,0.3-0.2h0.1V50.5z"/>
		<path class="st0" d="M107.4,47.7h-4.8c0,0.4,0.1,0.8,0.2,1.1c0.1,0.3,0.3,0.5,0.5,0.7c0.2,0.2,0.4,0.3,0.7,0.4
			c0.3,0.1,0.6,0.1,0.9,0.1c0.4,0,0.9-0.1,1.3-0.3c0.5-0.2,0.8-0.4,1-0.5h0.1v1.2c-0.4,0.2-0.7,0.3-1.1,0.4
			c-0.4,0.1-0.8,0.2-1.2,0.2c-1.1,0-1.9-0.3-2.5-0.9c-0.6-0.6-0.9-1.4-0.9-2.5c0-1.1,0.3-1.9,0.9-2.5c0.6-0.6,1.4-0.9,2.3-0.9
			c0.9,0,1.6,0.3,2,0.8c0.5,0.5,0.7,1.2,0.7,2.2V47.7z M106.3,46.9c0-0.6-0.1-1-0.4-1.3c-0.3-0.3-0.7-0.5-1.3-0.5
			c-0.6,0-1.1,0.2-1.4,0.5c-0.3,0.3-0.5,0.8-0.6,1.3H106.3z"/>
		<path class="st0" d="M119.9,50.3c-0.2,0.1-0.4,0.2-0.6,0.3c-0.2,0.1-0.4,0.2-0.7,0.3c-0.2,0.1-0.5,0.1-0.8,0.2
			c-0.3,0.1-0.6,0.1-0.9,0.1c-0.6,0-1.2-0.1-1.7-0.3c-0.5-0.2-1-0.5-1.3-0.8c-0.4-0.4-0.7-0.8-0.9-1.4c-0.2-0.6-0.3-1.2-0.3-2
			c0-0.7,0.1-1.4,0.3-1.9c0.2-0.6,0.5-1,0.9-1.4c0.4-0.4,0.8-0.7,1.3-0.9c0.5-0.2,1.1-0.3,1.7-0.3c0.5,0,0.9,0.1,1.4,0.2
			c0.5,0.1,1,0.3,1.6,0.6v1.4h-0.1c-0.5-0.4-1-0.7-1.4-0.9c-0.5-0.2-1-0.3-1.5-0.3c-0.4,0-0.8,0.1-1.2,0.2c-0.4,0.1-0.7,0.4-0.9,0.7
			c-0.3,0.3-0.5,0.7-0.6,1.1s-0.2,1-0.2,1.5c0,0.6,0.1,1.1,0.2,1.6c0.2,0.4,0.4,0.8,0.6,1.1c0.3,0.3,0.6,0.5,1,0.6
			c0.4,0.1,0.7,0.2,1.2,0.2c0.6,0,1.1-0.1,1.6-0.3c0.5-0.2,0.9-0.5,1.4-0.9h0.1V50.3z"/>
		<path class="st0" d="M126.9,47.6c0,1.1-0.3,1.9-0.8,2.5c-0.5,0.6-1.3,0.9-2.2,0.9c-0.9,0-1.7-0.3-2.2-0.9
			c-0.5-0.6-0.8-1.5-0.8-2.5s0.3-1.9,0.8-2.5c0.5-0.6,1.3-0.9,2.2-0.9c0.9,0,1.6,0.3,2.2,0.9C126.7,45.7,126.9,46.6,126.9,47.6z
			 M125.8,47.6c0-0.8-0.2-1.5-0.5-1.9c-0.3-0.4-0.8-0.6-1.4-0.6c-0.6,0-1.1,0.2-1.4,0.6c-0.3,0.4-0.5,1-0.5,1.9
			c0,0.8,0.2,1.4,0.5,1.9c0.3,0.4,0.8,0.6,1.4,0.6c0.6,0,1-0.2,1.4-0.6C125.6,49.1,125.8,48.5,125.8,47.6z"/>
		<path class="st0" d="M130.2,50.9h-1.4v-1.7h1.4V50.9z"/>
		<path class="st0" d="M134.2,49.2l-1.6,3.8h-0.9l1-3.8H134.2z"/>
		<path class="st0" d="M141.8,50.9h-5.5v-8.7h1.2v7.7h4.4V50.9z"/>
		<path class="st0" d="M146.2,50.8c-0.2,0.1-0.4,0.1-0.7,0.1c-0.2,0-0.5,0.1-0.7,0.1c-0.7,0-1.2-0.2-1.5-0.5
			c-0.3-0.4-0.5-0.9-0.5-1.7v-3.5h-0.7v-0.9h0.7v-1.9h1.1v1.9h2.3v0.9H144v3c0,0.3,0,0.6,0,0.8c0,0.2,0.1,0.4,0.2,0.5
			c0.1,0.2,0.2,0.3,0.4,0.3s0.4,0.1,0.7,0.1c0.2,0,0.4,0,0.6-0.1c0.2-0.1,0.3-0.1,0.4-0.1h0.1V50.8z"/>
		<path class="st0" d="M152.8,50.9h-1.1v-0.7c-0.3,0.3-0.6,0.5-1,0.6c-0.3,0.2-0.7,0.2-1.1,0.2c-0.8,0-1.4-0.3-1.9-0.9
			c-0.5-0.6-0.7-1.4-0.7-2.5c0-0.6,0.1-1,0.2-1.5c0.2-0.4,0.4-0.8,0.6-1.1c0.3-0.3,0.6-0.5,0.9-0.7c0.4-0.2,0.7-0.2,1.1-0.2
			c0.3,0,0.6,0,0.9,0.1c0.3,0.1,0.5,0.2,0.8,0.3v-2.8h1.1V50.9z M151.7,49.3v-3.8c-0.3-0.1-0.6-0.2-0.8-0.3
			c-0.2-0.1-0.5-0.1-0.8-0.1c-0.6,0-1.1,0.2-1.4,0.6c-0.3,0.4-0.5,1-0.5,1.8c0,0.8,0.1,1.4,0.4,1.8c0.3,0.4,0.7,0.6,1.3,0.6
			c0.3,0,0.6-0.1,0.9-0.2C151.1,49.7,151.4,49.5,151.7,49.3z"/>
		<path class="st0" d="M156.6,50.9h-1.4v-1.7h1.4V50.9z"/>
	</g>
</g>
</svg>
